<mxfile host="app.diagrams.net" modified="2023-09-05T21:28:54.298Z" agent="Mozilla/5.0 (X11; Ubuntu; Linux x86_64; rv:109.0) Gecko/20100101 Firefox/116.0" etag="8ProAJ-Wk-ZAGUjYsxwh" version="21.7.2" type="github">
  <diagram name="Page-1" id="wF1uMGhLeyXnpZ27aQJU">
    <mxGraphModel dx="689" dy="497" grid="1" gridSize="10" guides="1" tooltips="1" connect="1" arrows="1" fold="1" page="1" pageScale="1" pageWidth="850" pageHeight="1100" math="0" shadow="0">
      <root>
        <mxCell id="0" />
        <mxCell id="1" parent="0" />
        <mxCell id="kVbF6EgV8bhvYfWOTuWb-39" value="" style="endArrow=classic;html=1;rounded=0;" parent="1" edge="1">
          <mxGeometry width="50" height="50" relative="1" as="geometry">
            <mxPoint x="189.71" y="730" as="sourcePoint" />
            <mxPoint x="189.71" y="760" as="targetPoint" />
          </mxGeometry>
        </mxCell>
        <mxCell id="kVbF6EgV8bhvYfWOTuWb-15" value="world.wit" style="rounded=1;whiteSpace=wrap;html=1;fillColor=#e1d5e7;strokeColor=#9673a6;" parent="1" vertex="1">
          <mxGeometry x="160" y="700" width="60" height="20" as="geometry" />
        </mxCell>
        <mxCell id="kVbF6EgV8bhvYfWOTuWb-16" value="app.py" style="rounded=1;whiteSpace=wrap;html=1;fillColor=#e1d5e7;strokeColor=#9673a6;" parent="1" vertex="1">
          <mxGeometry x="230" y="700" width="60" height="20" as="geometry" />
        </mxCell>
        <mxCell id="kVbF6EgV8bhvYfWOTuWb-31" value="uninitialized-component.wasm" style="rounded=1;whiteSpace=wrap;html=1;fillColor=#e1d5e7;strokeColor=#9673a6;" parent="1" vertex="1">
          <mxGeometry x="300" y="700" width="170" height="20" as="geometry" />
        </mxCell>
        <mxCell id="kVbF6EgV8bhvYfWOTuWb-36" value="component-init" style="rounded=0;whiteSpace=wrap;html=1;fillColor=#dae8fc;strokeColor=#6c8ebf;" parent="1" vertex="1">
          <mxGeometry x="150" y="770" width="460" height="20" as="geometry" />
        </mxCell>
        <mxCell id="kVbF6EgV8bhvYfWOTuWb-37" value="" style="endArrow=classic;html=1;rounded=0;" parent="1" edge="1">
          <mxGeometry width="50" height="50" relative="1" as="geometry">
            <mxPoint x="259.71000000000004" y="730" as="sourcePoint" />
            <mxPoint x="259.71000000000004" y="760" as="targetPoint" />
          </mxGeometry>
        </mxCell>
        <mxCell id="kVbF6EgV8bhvYfWOTuWb-38" value="" style="endArrow=classic;html=1;rounded=0;" parent="1" edge="1">
          <mxGeometry width="50" height="50" relative="1" as="geometry">
            <mxPoint x="390" y="730" as="sourcePoint" />
            <mxPoint x="390" y="760" as="targetPoint" />
          </mxGeometry>
        </mxCell>
        <mxCell id="kVbF6EgV8bhvYfWOTuWb-41" value="bundled" style="rounded=0;whiteSpace=wrap;html=1;fillColor=#fff2cc;strokeColor=#d6b656;spacingTop=-30;" parent="1" vertex="1">
          <mxGeometry x="480" y="680" width="120" height="50" as="geometry" />
        </mxCell>
        <mxCell id="kVbF6EgV8bhvYfWOTuWb-42" value="python-sys-lib.tar" style="rounded=1;whiteSpace=wrap;html=1;fillColor=#e1d5e7;strokeColor=#9673a6;" parent="1" vertex="1">
          <mxGeometry x="490" y="700" width="100" height="20" as="geometry" />
        </mxCell>
        <mxCell id="kVbF6EgV8bhvYfWOTuWb-43" style="edgeStyle=orthogonalEdgeStyle;rounded=0;orthogonalLoop=1;jettySize=auto;html=1;exitX=0.5;exitY=1;exitDx=0;exitDy=0;" parent="1" source="kVbF6EgV8bhvYfWOTuWb-41" target="kVbF6EgV8bhvYfWOTuWb-41" edge="1">
          <mxGeometry relative="1" as="geometry" />
        </mxCell>
        <mxCell id="kVbF6EgV8bhvYfWOTuWb-44" value="" style="endArrow=classic;html=1;rounded=0;" parent="1" edge="1">
          <mxGeometry width="50" height="50" relative="1" as="geometry">
            <mxPoint x="539.71" y="740" as="sourcePoint" />
            <mxPoint x="539.71" y="760" as="targetPoint" />
          </mxGeometry>
        </mxCell>
        <mxCell id="kVbF6EgV8bhvYfWOTuWb-45" value="component.wasm" style="rounded=1;whiteSpace=wrap;html=1;fillColor=#e1d5e7;strokeColor=#9673a6;" parent="1" vertex="1">
          <mxGeometry x="330" y="830" width="110" height="20" as="geometry" />
        </mxCell>
        <mxCell id="kVbF6EgV8bhvYfWOTuWb-46" value="" style="endArrow=classic;html=1;rounded=0;" parent="1" edge="1">
          <mxGeometry width="50" height="50" relative="1" as="geometry">
            <mxPoint x="380" y="800" as="sourcePoint" />
            <mxPoint x="380" y="820" as="targetPoint" />
          </mxGeometry>
        </mxCell>
      </root>
    </mxGraphModel>
  </diagram>
</mxfile>
